<svg width="306" height="365" viewBox="0 0 306 365" fill="none" xmlns="http://www.w3.org/2000/svg">
<g filter="url(#filter0_f_63_317)">
<path d="M157.165 345.898C135.059 342.679 111.447 337.47 91.6015 326.798C86.6009 324.109 82.2822 319.992 77.8276 316.514C71.6923 311.723 69.5336 305.186 65.5229 298.883C59.8485 289.966 60.4724 277.955 60.4724 267.846C60.4724 254.335 63.4978 242.503 68.645 229.922C72.0941 221.49 76.8895 213.896 81.5925 206.139C89.2546 193.5 95.0299 179.975 101.243 166.607C103.788 161.133 108.218 157.02 110.885 151.686" stroke="#E1E1E1" stroke-width="3" stroke-linecap="round"/>
</g>
<g filter="url(#filter1_f_63_317)">
<path d="M93.374 173.677C98.3071 175.93 106.758 181.967 111.116 176.115C112.217 174.637 112.534 172.583 113.191 170.876C114.439 167.631 117.327 166.674 120.454 166.674" stroke="#E1E1E1" stroke-width="3" stroke-linecap="round"/>
</g>
<g filter="url(#filter2_f_63_317)">
<path d="M110.648 184.883C116.842 193.862 123.362 204.192 135.134 205.685C142.502 206.62 147.498 203.648 154.069 200.757" stroke="#E1E1E1" stroke-width="3" stroke-linecap="round"/>
</g>
<g filter="url(#filter3_f_63_317)">
<path d="M202.626 192.353C216.613 185.898 227.943 175.202 238.109 163.873" stroke="#E1E1E1" stroke-width="3" stroke-linecap="round"/>
</g>
<g filter="url(#filter4_f_63_317)">
<path d="M211.029 229.238C211.282 220.642 213.876 212.489 219.589 205.946C224.373 200.466 229.503 200.291 236.241 200.291" stroke="#E1E1E1" stroke-width="3" stroke-linecap="round"/>
</g>
<g filter="url(#filter5_f_63_317)">
<path d="M233.44 218.967C238.744 220.328 244.075 222.071 248.017 226.074C250.053 228.14 251.092 230.513 251.96 233.285C253.547 238.356 256.007 245.215 253.853 250.456C251.18 256.962 246.409 262.318 241.481 267.186C238.823 269.811 236.267 272.779 233.025 274.708C224.586 279.728 214.773 278.402 205.427 278.728" stroke="#E1E1E1" stroke-width="3" stroke-linecap="round"/>
</g>
<g filter="url(#filter6_f_63_317)">
<path d="M94.7744 154.069C94.297 146.922 93.5186 138.116 93.685 130.828C93.7836 126.509 94.129 122.156 96.616 118.534C99.3615 114.535 103.414 112.716 107.38 110.182" stroke="#E1E1E1" stroke-width="3" stroke-linecap="round"/>
</g>
<g filter="url(#filter7_f_63_317)">
<path d="M127.924 147.999C136.967 141.97 135.268 126.953 136.094 117.703C136.545 112.653 137.276 108.277 139.129 103.645" stroke="#E1E1E1" stroke-width="3" stroke-linecap="round"/>
</g>
<g filter="url(#filter8_f_63_317)">
<path d="M171.812 40.6152C180.497 56.1405 189.003 71.7753 198.735 86.6815C201.83 91.4212 205.544 95.8876 208.229 100.896C215.584 114.616 214.776 130.126 216.166 145.198" stroke="#E1E1E1" stroke-width="3" stroke-linecap="round"/>
</g>
<g filter="url(#filter9_f_63_317)">
<path d="M121.444 278.138C124.848 261.573 126.266 248.311 134.093 233.192C141.021 219.811 152.508 213.043 162.505 202.694C167.858 197.153 170.814 190.404 173.453 183.367" stroke="#E1E1E1" stroke-width="3" stroke-linecap="round"/>
</g>
<g filter="url(#filter10_f_63_317)">
<path d="M182.698 309.921C179.052 301.627 175.838 293.093 173.002 284.495C168.898 272.05 164.517 259.04 165.875 245.713C166.603 238.577 169.295 230.899 172.296 224.396" stroke="#E1E1E1" stroke-width="3" stroke-linecap="round"/>
</g>
<g filter="url(#filter11_f_63_317)">
<path d="M159.583 332.458C191.585 327.658 226.826 325.308 256.858 311.879C260.744 310.142 264.381 307.775 267.645 305.041C272.566 300.919 270.741 299.398 274.001 294.896" stroke="#E1E1E1" stroke-width="3" stroke-linecap="round"/>
</g>
<g filter="url(#filter12_f_63_317)">
<path d="M229.506 140.027C239.644 150.406 247.848 158.433 257.244 169.627C263.311 176.855 276.732 194.02 281.193 202.951C293.309 227.208 280.445 251.308 274.58 275.249" stroke="#E1E1E1" stroke-width="3" stroke-linecap="round"/>
</g>
<g filter="url(#filter13_f_63_317)">
<path d="M199.456 161.408C197.025 194.323 192.855 228.045 196.053 261.026C197.073 271.545 197.79 270.284 200.548 278.33C202.058 282.738 202.581 286.932 203.501 291.429" stroke="#E1E1E1" stroke-width="3" stroke-linecap="round"/>
</g>
<g filter="url(#filter14_f_63_317)">
<path d="M75.792 278.716C76.0976 262.674 74.6378 244.447 85.9368 231.524C92.9403 223.514 102.21 220.434 111.62 216.307" stroke="#E1E1E1" stroke-width="3" stroke-linecap="round"/>
</g>
<g filter="url(#filter15_f_63_317)">
<path d="M123.953 325.985C119.561 313.548 115.143 301.029 112.249 288.138C111.14 283.198 110.763 278.018 110.431 272.977C110.027 266.842 110.047 260.631 111.763 254.706C113.611 248.329 118.305 240.592 124.453 237.518" stroke="#E1E1E1" stroke-width="2" stroke-linecap="round"/>
</g>
<g filter="url(#filter16_f_63_317)">
<path d="M137.698 237.518C141.837 248.174 145.335 260.151 151.832 269.728C153.291 271.88 155.211 273.471 156.372 275.851C159.914 283.112 161.627 290.687 163.189 298.495" stroke="#E1E1E1" stroke-width="2" stroke-linecap="round"/>
</g>
<g filter="url(#filter17_f_63_317)">
<path d="M135.876 200.632C137.437 200.069 138.986 199.526 140.469 198.785C141.931 198.053 143.173 196.892 144.32 195.745C145.656 194.41 146.751 192.861 148.121 191.558C148.624 191.079 149.152 190.334 149.806 190.072" stroke="#E1E1E1" stroke-width="2" stroke-linecap="round"/>
</g>
<g filter="url(#filter18_f_63_317)">
<path d="M111.167 221.843C118.457 220.853 122.249 213.291 125.232 207.324" stroke="#E1E1E1" stroke-width="2" stroke-linecap="round"/>
</g>
<g filter="url(#filter19_f_63_317)">
<path d="M159.034 213.903C163.612 213.54 168.206 212.979 172.721 212.139C175.527 211.617 178.124 210.366 180.914 209.92C183.923 209.439 187.068 209.555 189.862 208.131C191.72 207.184 192.259 206.057 193.063 204.375" stroke="#E1E1E1" stroke-width="2" stroke-linecap="round"/>
</g>
<g filter="url(#filter20_f_63_317)">
<path d="M241.551 184.336C248.267 189.658 251.583 191.81 257.335 198.359C261.612 203.23 265.745 209.428 268.808 215.175C271.131 219.533 272.253 223.306 272.693 228.045" stroke="#E1E1E1" stroke-width="2" stroke-linecap="round"/>
</g>
<g filter="url(#filter21_f_63_317)">
<path d="M196.189 136.42C201.671 140.941 208.446 144.464 211.711 151.125C213.468 154.711 213.853 159.088 214.555 162.993C214.9 164.915 215.195 167.024 215.195 168.983" stroke="#E1E1E1" stroke-width="2" stroke-linecap="round"/>
</g>
<g filter="url(#filter22_f_63_317)">
<path d="M113.935 127.869C118.333 128.243 122.138 127.715 125.59 124.652C127.461 122.993 127.968 121.208 128.516 118.945" stroke="#E1E1E1" stroke-width="2" stroke-linecap="round"/>
</g>
<g filter="url(#filter23_f_63_317)">
<path d="M120.355 180.961C125.441 179.214 130.302 176.355 134.875 173.585C138.02 171.679 142.238 169.521 144.159 166.159C144.719 165.178 145.14 163.904 145.946 163.098" stroke="#E1E1E1" stroke-width="2" stroke-linecap="round"/>
</g>
<g filter="url(#filter24_f_63_317)">
<path d="M71.2881 236.636C77.9058 229.706 79.9841 228.033 85.6145 219.984C90.1987 213.43 93.151 207.616 97.0863 200.741C99.0787 197.26 100.88 193.772 103.536 190.749C105.518 188.493 105.786 189.063 107.924 187.154" stroke="#E1E1E1" stroke-linecap="round"/>
</g>
<g filter="url(#filter25_f_63_317)">
<path d="M108.875 323.229C93.3988 308.597 83.0846 283.951 90.8479 262.778C93.0853 256.676 97.3737 251.529 101.262 246.416C102.769 244.435 104.92 240.809 107.448 239.967" stroke="#E1E1E1" stroke-linecap="round"/>
</g>
<g filter="url(#filter26_f_63_317)">
<path d="M235.91 186.203C242.653 198.628 252.096 211.863 247.144 226.804C244.947 233.432 239.262 238.267 232.368 238.962C228.317 239.371 223.657 238.182 219.733 237.112" stroke="#E1E1E1" stroke-linecap="round"/>
</g>
<g filter="url(#filter27_f_63_317)">
<path d="M196.883 105.646C196.014 117.462 196.228 123.512 192.637 135.047C184.92 159.833 187.866 142.1 177.775 167.022" stroke="#E1E1E1" stroke-linecap="round"/>
</g>
<g filter="url(#filter28_f_63_317)">
<path d="M167.932 52.0879C162.963 60.9544 159.974 66.5662 154.647 75.0553C150.775 81.2249 146.213 86.9098 142.343 93.0689C140.446 96.0885 139.251 99.0661 138.402 102.462" stroke="#E1E1E1" stroke-linecap="round"/>
</g>
<g filter="url(#filter29_f_63_317)">
<path d="M196.304 50.3516C198.059 52.3774 200.578 54.3611 202.464 56.0452C211.04 63.7058 220.225 71.3307 227.088 80.6531C231.581 86.7569 233.386 92.0889 232.299 99.4066C231.957 101.704 231.347 103.729 230.755 105.937" stroke="#E1E1E1" stroke-linecap="round"/>
</g>
<g filter="url(#filter30_f_63_317)">
<path d="M150.273 49.1934C139.202 60.98 128.185 72.8115 117.302 84.7703C111.745 90.8754 105.294 97.04 101.942 104.73C101.092 106.679 100.768 108.487 100.768 110.568" stroke="#E1E1E1" stroke-linecap="round"/>
</g>
<g filter="url(#filter31_f_63_317)">
<path d="M83.5647 116.041C80.9716 125.017 77.5331 133.789 74.4756 142.609" stroke="#E1E1E1" stroke-linecap="round"/>
</g>
<g filter="url(#filter32_f_63_317)">
<path d="M148.898 196.21C158.065 191.069 166.624 183.787 166.624 172.576" stroke="#E1E1E1" stroke-linecap="round"/>
</g>
<g filter="url(#filter33_f_63_317)">
<path d="M175.782 175.826C178.478 179.051 181.653 182.563 183.43 186.429C184.436 188.617 184.834 191.036 185.039 193.42C185.48 198.573 185.392 203.973 184.119 209.012C182.89 213.884 179.615 218.636 176.701 222.635C173.406 227.157 169.003 230.173 164.556 233.434" stroke="#E1E1E1" stroke-linecap="round"/>
</g>
<g filter="url(#filter34_f_63_317)">
<path d="M202.961 178.779C205.813 183.955 209.285 189.194 209.575 195.307C209.821 200.479 207.018 205.311 204.307 209.487C200.305 215.653 195.209 220.951 190.258 226.343" stroke="#E1E1E1" stroke-linecap="round"/>
</g>
<g filter="url(#filter35_f_63_317)">
<path d="M233.981 180.553C239.85 185.748 245.484 190.961 250.443 197.064C255.282 203.017 258.579 208.274 257.714 216.086C257.282 219.986 256.368 223.382 253.906 226.508C251.928 229.021 249.433 230.881 246.98 232.843" stroke="#E1E1E1" stroke-linecap="round"/>
</g>
<g filter="url(#filter36_f_63_317)">
<path d="M250.82 180.848C265.321 190.703 282.951 205.793 278.262 225.391C277.229 229.712 275.204 233.945 272.748 237.635C270.775 240.599 268.259 242.414 265.592 244.66" stroke="#E1E1E1" stroke-linecap="round"/>
</g>
<g filter="url(#filter37_f_63_317)">
<path d="M150.947 317.024C168.712 318.686 186.309 319.049 203.849 314.945C216.885 311.895 231.769 305.785 240.148 294.703C245.108 288.142 248.899 280.538 252.566 273.203C253.385 271.565 253.852 270.513 253.852 268.771" stroke="#E1E1E1" stroke-linecap="round"/>
</g>
<g filter="url(#filter38_f_63_317)">
<path d="M142.084 295.36C131.297 270.521 120.794 246.352 114.922 219.809C112.969 210.983 111.337 201.028 110.08 191.963" stroke="#E1E1E1" stroke-linecap="round"/>
</g>
<g filter="url(#filter39_f_63_317)">
<path d="M18.5 293.39C24.8924 293.248 32.788 293.592 37.4835 288.494C46.6573 278.534 51.4416 265.267 56.0841 252.797C61.401 238.515 68.1009 223.662 81.0307 214.611" stroke="#E1E1E1" stroke-linecap="round"/>
</g>
<g filter="url(#filter40_f_63_317)">
<path d="M124.366 193.307C131.434 193.307 139.371 190.085 143.465 184.18C147.341 178.589 147.928 170.17 147.07 163.637C146.206 157.058 140.628 152.775 138.398 146.828" stroke="#E1E1E1" stroke-linecap="round"/>
</g>
<g filter="url(#filter41_f_63_317)">
<path d="M100.396 190.092C101.96 187.594 101.556 188.034 104.423 185.122C109.189 180.282 114.291 175.466 120.046 171.805C123.696 169.484 127.815 168.783 130.7 165.293C135.145 159.915 136.267 152.214 133.136 145.951" stroke="#E1E1E1" stroke-linecap="round"/>
</g>
<g filter="url(#filter42_f_63_317)">
<path d="M107.704 135.428C112.62 137.542 116.69 138.292 119.559 143.386C123.156 149.774 121.873 158.667 118.211 164.644C116.156 167.998 113.984 169.429 110.594 171.075C109.375 171.667 108.149 172.507 106.794 172.521C103.126 172.556 102.444 167.939 102.312 165.472C101.94 158.552 103.753 149.691 106.567 143.483C108.105 140.09 110.279 136.988 112.608 134.08C117.301 128.221 119.361 128.284 124.301 123.508C128.504 119.444 130.898 114.384 133.136 109.119" stroke="#E1E1E1" stroke-linecap="round"/>
</g>
<g filter="url(#filter43_f_63_317)">
<path d="M114.093 97.0684C114.093 103.479 116.501 110.612 120.196 115.785" stroke="#E1E1E1" stroke-linecap="round"/>
</g>
<g filter="url(#filter44_f_63_317)">
<path d="M163.325 26.2695C172.623 28.622 187.291 32.195 196.87 35.0853C239.83 48.0471 184.154 31.3826 210.524 40.5104" stroke="#E1E1E1" stroke-linecap="round"/>
</g>
<g filter="url(#filter45_f_63_317)">
<path d="M161.291 18.1328C157.161 24.6886 153.194 31.3434 149.084 37.9119C145.262 44.0212 141.015 49.3669 136.878 55.1592" stroke="#E1E1E1" stroke-linecap="round"/>
</g>
<g filter="url(#filter46_f_63_317)">
<path d="M198.317 71.4336C201.271 76.6628 204.545 81.7235 207.178 87.1212C213.745 100.581 216.236 108.654 219.611 123.176C221.742 132.346 222.509 140.79 223.544 149.962" stroke="#E1E1E1" stroke-linecap="round"/>
</g>
<defs>
<filter id="filter0_f_63_317" x="41.4519" y="132.685" width="134.714" height="232.213" filterUnits="userSpaceOnUse" color-interpolation-filters="sRGB">
<feFlood flood-opacity="0" result="BackgroundImageFix"/>
<feBlend mode="normal" in="SourceGraphic" in2="BackgroundImageFix" result="shape"/>
<feGaussianBlur stdDeviation="8.75" result="effect1_foregroundBlur_63_317"/>
</filter>
<filter id="filter1_f_63_317" x="74.3737" y="147.674" width="65.0799" height="49.9231" filterUnits="userSpaceOnUse" color-interpolation-filters="sRGB">
<feFlood flood-opacity="0" result="BackgroundImageFix"/>
<feBlend mode="normal" in="SourceGraphic" in2="BackgroundImageFix" result="shape"/>
<feGaussianBlur stdDeviation="8.75" result="effect1_foregroundBlur_63_317"/>
</filter>
<filter id="filter2_f_63_317" x="91.6483" y="165.883" width="81.4211" height="58.9763" filterUnits="userSpaceOnUse" color-interpolation-filters="sRGB">
<feFlood flood-opacity="0" result="BackgroundImageFix"/>
<feBlend mode="normal" in="SourceGraphic" in2="BackgroundImageFix" result="shape"/>
<feGaussianBlur stdDeviation="8.75" result="effect1_foregroundBlur_63_317"/>
</filter>
<filter id="filter3_f_63_317" x="183.626" y="144.873" width="73.4839" height="66.4805" filterUnits="userSpaceOnUse" color-interpolation-filters="sRGB">
<feFlood flood-opacity="0" result="BackgroundImageFix"/>
<feBlend mode="normal" in="SourceGraphic" in2="BackgroundImageFix" result="shape"/>
<feGaussianBlur stdDeviation="8.75" result="effect1_foregroundBlur_63_317"/>
</filter>
<filter id="filter4_f_63_317" x="192.029" y="181.291" width="63.212" height="66.9471" filterUnits="userSpaceOnUse" color-interpolation-filters="sRGB">
<feFlood flood-opacity="0" result="BackgroundImageFix"/>
<feBlend mode="normal" in="SourceGraphic" in2="BackgroundImageFix" result="shape"/>
<feGaussianBlur stdDeviation="8.75" result="effect1_foregroundBlur_63_317"/>
</filter>
<filter id="filter5_f_63_317" x="186.427" y="199.966" width="87.2711" height="97.7621" filterUnits="userSpaceOnUse" color-interpolation-filters="sRGB">
<feFlood flood-opacity="0" result="BackgroundImageFix"/>
<feBlend mode="normal" in="SourceGraphic" in2="BackgroundImageFix" result="shape"/>
<feGaussianBlur stdDeviation="8.75" result="effect1_foregroundBlur_63_317"/>
</filter>
<filter id="filter6_f_63_317" x="74.6622" y="91.1815" width="51.7184" height="81.8877" filterUnits="userSpaceOnUse" color-interpolation-filters="sRGB">
<feFlood flood-opacity="0" result="BackgroundImageFix"/>
<feBlend mode="normal" in="SourceGraphic" in2="BackgroundImageFix" result="shape"/>
<feGaussianBlur stdDeviation="8.75" result="effect1_foregroundBlur_63_317"/>
</filter>
<filter id="filter7_f_63_317" x="108.924" y="84.6441" width="49.2059" height="82.355" filterUnits="userSpaceOnUse" color-interpolation-filters="sRGB">
<feFlood flood-opacity="0" result="BackgroundImageFix"/>
<feBlend mode="normal" in="SourceGraphic" in2="BackgroundImageFix" result="shape"/>
<feGaussianBlur stdDeviation="8.75" result="effect1_foregroundBlur_63_317"/>
</filter>
<filter id="filter8_f_63_317" x="152.811" y="21.615" width="82.3547" height="142.583" filterUnits="userSpaceOnUse" color-interpolation-filters="sRGB">
<feFlood flood-opacity="0" result="BackgroundImageFix"/>
<feBlend mode="normal" in="SourceGraphic" in2="BackgroundImageFix" result="shape"/>
<feGaussianBlur stdDeviation="8.75" result="effect1_foregroundBlur_63_317"/>
</filter>
<filter id="filter9_f_63_317" x="102.444" y="164.367" width="90.0089" height="132.771" filterUnits="userSpaceOnUse" color-interpolation-filters="sRGB">
<feFlood flood-opacity="0" result="BackgroundImageFix"/>
<feBlend mode="normal" in="SourceGraphic" in2="BackgroundImageFix" result="shape"/>
<feGaussianBlur stdDeviation="8.75" result="effect1_foregroundBlur_63_317"/>
</filter>
<filter id="filter10_f_63_317" x="146.624" y="205.396" width="55.0745" height="123.525" filterUnits="userSpaceOnUse" color-interpolation-filters="sRGB">
<feFlood flood-opacity="0" result="BackgroundImageFix"/>
<feBlend mode="normal" in="SourceGraphic" in2="BackgroundImageFix" result="shape"/>
<feGaussianBlur stdDeviation="8.75" result="effect1_foregroundBlur_63_317"/>
</filter>
<filter id="filter11_f_63_317" x="140.583" y="275.896" width="152.418" height="75.5618" filterUnits="userSpaceOnUse" color-interpolation-filters="sRGB">
<feFlood flood-opacity="0" result="BackgroundImageFix"/>
<feBlend mode="normal" in="SourceGraphic" in2="BackgroundImageFix" result="shape"/>
<feGaussianBlur stdDeviation="8.75" result="effect1_foregroundBlur_63_317"/>
</filter>
<filter id="filter12_f_63_317" x="210.506" y="121.027" width="94.7102" height="173.222" filterUnits="userSpaceOnUse" color-interpolation-filters="sRGB">
<feFlood flood-opacity="0" result="BackgroundImageFix"/>
<feBlend mode="normal" in="SourceGraphic" in2="BackgroundImageFix" result="shape"/>
<feGaussianBlur stdDeviation="8.75" result="effect1_foregroundBlur_63_317"/>
</filter>
<filter id="filter13_f_63_317" x="175.893" y="142.408" width="46.608" height="168.021" filterUnits="userSpaceOnUse" color-interpolation-filters="sRGB">
<feFlood flood-opacity="0" result="BackgroundImageFix"/>
<feBlend mode="normal" in="SourceGraphic" in2="BackgroundImageFix" result="shape"/>
<feGaussianBlur stdDeviation="8.75" result="effect1_foregroundBlur_63_317"/>
</filter>
<filter id="filter14_f_63_317" x="56.792" y="197.306" width="73.8283" height="100.41" filterUnits="userSpaceOnUse" color-interpolation-filters="sRGB">
<feFlood flood-opacity="0" result="BackgroundImageFix"/>
<feBlend mode="normal" in="SourceGraphic" in2="BackgroundImageFix" result="shape"/>
<feGaussianBlur stdDeviation="8.75" result="effect1_foregroundBlur_63_317"/>
</filter>
<filter id="filter15_f_63_317" x="91.7148" y="219.017" width="51.2387" height="125.468" filterUnits="userSpaceOnUse" color-interpolation-filters="sRGB">
<feFlood flood-opacity="0" result="BackgroundImageFix"/>
<feBlend mode="normal" in="SourceGraphic" in2="BackgroundImageFix" result="shape"/>
<feGaussianBlur stdDeviation="8.75" result="effect1_foregroundBlur_63_317"/>
</filter>
<filter id="filter16_f_63_317" x="119.198" y="219.017" width="62.4911" height="97.978" filterUnits="userSpaceOnUse" color-interpolation-filters="sRGB">
<feFlood flood-opacity="0" result="BackgroundImageFix"/>
<feBlend mode="normal" in="SourceGraphic" in2="BackgroundImageFix" result="shape"/>
<feGaussianBlur stdDeviation="8.75" result="effect1_foregroundBlur_63_317"/>
</filter>
<filter id="filter17_f_63_317" x="117.376" y="171.572" width="50.9302" height="47.5601" filterUnits="userSpaceOnUse" color-interpolation-filters="sRGB">
<feFlood flood-opacity="0" result="BackgroundImageFix"/>
<feBlend mode="normal" in="SourceGraphic" in2="BackgroundImageFix" result="shape"/>
<feGaussianBlur stdDeviation="8.75" result="effect1_foregroundBlur_63_317"/>
</filter>
<filter id="filter18_f_63_317" x="92.6669" y="188.824" width="51.0656" height="51.5193" filterUnits="userSpaceOnUse" color-interpolation-filters="sRGB">
<feFlood flood-opacity="0" result="BackgroundImageFix"/>
<feBlend mode="normal" in="SourceGraphic" in2="BackgroundImageFix" result="shape"/>
<feGaussianBlur stdDeviation="8.75" result="effect1_foregroundBlur_63_317"/>
</filter>
<filter id="filter19_f_63_317" x="140.534" y="185.875" width="71.0292" height="46.5284" filterUnits="userSpaceOnUse" color-interpolation-filters="sRGB">
<feFlood flood-opacity="0" result="BackgroundImageFix"/>
<feBlend mode="normal" in="SourceGraphic" in2="BackgroundImageFix" result="shape"/>
<feGaussianBlur stdDeviation="8.75" result="effect1_foregroundBlur_63_317"/>
</filter>
<filter id="filter20_f_63_317" x="223.051" y="165.836" width="68.1427" height="80.709" filterUnits="userSpaceOnUse" color-interpolation-filters="sRGB">
<feFlood flood-opacity="0" result="BackgroundImageFix"/>
<feBlend mode="normal" in="SourceGraphic" in2="BackgroundImageFix" result="shape"/>
<feGaussianBlur stdDeviation="8.75" result="effect1_foregroundBlur_63_317"/>
</filter>
<filter id="filter21_f_63_317" x="177.689" y="117.92" width="56.0058" height="69.5633" filterUnits="userSpaceOnUse" color-interpolation-filters="sRGB">
<feFlood flood-opacity="0" result="BackgroundImageFix"/>
<feBlend mode="normal" in="SourceGraphic" in2="BackgroundImageFix" result="shape"/>
<feGaussianBlur stdDeviation="8.75" result="effect1_foregroundBlur_63_317"/>
</filter>
<filter id="filter22_f_63_317" x="95.4345" y="100.445" width="51.5822" height="46.0282" filterUnits="userSpaceOnUse" color-interpolation-filters="sRGB">
<feFlood flood-opacity="0" result="BackgroundImageFix"/>
<feBlend mode="normal" in="SourceGraphic" in2="BackgroundImageFix" result="shape"/>
<feGaussianBlur stdDeviation="8.75" result="effect1_foregroundBlur_63_317"/>
</filter>
<filter id="filter23_f_63_317" x="101.855" y="144.598" width="62.5912" height="54.8632" filterUnits="userSpaceOnUse" color-interpolation-filters="sRGB">
<feFlood flood-opacity="0" result="BackgroundImageFix"/>
<feBlend mode="normal" in="SourceGraphic" in2="BackgroundImageFix" result="shape"/>
<feGaussianBlur stdDeviation="8.75" result="effect1_foregroundBlur_63_317"/>
</filter>
<filter id="filter24_f_63_317" x="53.2881" y="169.154" width="72.6355" height="85.4818" filterUnits="userSpaceOnUse" color-interpolation-filters="sRGB">
<feFlood flood-opacity="0" result="BackgroundImageFix"/>
<feBlend mode="normal" in="SourceGraphic" in2="BackgroundImageFix" result="shape"/>
<feGaussianBlur stdDeviation="8.75" result="effect1_foregroundBlur_63_317"/>
</filter>
<filter id="filter25_f_63_317" x="70.2011" y="221.967" width="56.6739" height="119.263" filterUnits="userSpaceOnUse" color-interpolation-filters="sRGB">
<feFlood flood-opacity="0" result="BackgroundImageFix"/>
<feBlend mode="normal" in="SourceGraphic" in2="BackgroundImageFix" result="shape"/>
<feGaussianBlur stdDeviation="8.75" result="effect1_foregroundBlur_63_317"/>
</filter>
<filter id="filter26_f_63_317" x="201.733" y="168.203" width="64.7922" height="88.8418" filterUnits="userSpaceOnUse" color-interpolation-filters="sRGB">
<feFlood flood-opacity="0" result="BackgroundImageFix"/>
<feBlend mode="normal" in="SourceGraphic" in2="BackgroundImageFix" result="shape"/>
<feGaussianBlur stdDeviation="8.75" result="effect1_foregroundBlur_63_317"/>
</filter>
<filter id="filter27_f_63_317" x="159.775" y="87.6465" width="55.1075" height="97.3752" filterUnits="userSpaceOnUse" color-interpolation-filters="sRGB">
<feFlood flood-opacity="0" result="BackgroundImageFix"/>
<feBlend mode="normal" in="SourceGraphic" in2="BackgroundImageFix" result="shape"/>
<feGaussianBlur stdDeviation="8.75" result="effect1_foregroundBlur_63_317"/>
</filter>
<filter id="filter28_f_63_317" x="120.402" y="34.0878" width="65.5297" height="86.374" filterUnits="userSpaceOnUse" color-interpolation-filters="sRGB">
<feFlood flood-opacity="0" result="BackgroundImageFix"/>
<feBlend mode="normal" in="SourceGraphic" in2="BackgroundImageFix" result="shape"/>
<feGaussianBlur stdDeviation="8.75" result="effect1_foregroundBlur_63_317"/>
</filter>
<filter id="filter29_f_63_317" x="178.304" y="32.3516" width="72.3031" height="91.5851" filterUnits="userSpaceOnUse" color-interpolation-filters="sRGB">
<feFlood flood-opacity="0" result="BackgroundImageFix"/>
<feBlend mode="normal" in="SourceGraphic" in2="BackgroundImageFix" result="shape"/>
<feGaussianBlur stdDeviation="8.75" result="effect1_foregroundBlur_63_317"/>
</filter>
<filter id="filter30_f_63_317" x="82.7676" y="31.1934" width="85.5054" height="97.3751" filterUnits="userSpaceOnUse" color-interpolation-filters="sRGB">
<feFlood flood-opacity="0" result="BackgroundImageFix"/>
<feBlend mode="normal" in="SourceGraphic" in2="BackgroundImageFix" result="shape"/>
<feGaussianBlur stdDeviation="8.75" result="effect1_foregroundBlur_63_317"/>
</filter>
<filter id="filter31_f_63_317" x="56.4754" y="98.0409" width="45.0894" height="62.5685" filterUnits="userSpaceOnUse" color-interpolation-filters="sRGB">
<feFlood flood-opacity="0" result="BackgroundImageFix"/>
<feBlend mode="normal" in="SourceGraphic" in2="BackgroundImageFix" result="shape"/>
<feGaussianBlur stdDeviation="8.75" result="effect1_foregroundBlur_63_317"/>
</filter>
<filter id="filter32_f_63_317" x="130.898" y="154.576" width="53.7257" height="59.6342" filterUnits="userSpaceOnUse" color-interpolation-filters="sRGB">
<feFlood flood-opacity="0" result="BackgroundImageFix"/>
<feBlend mode="normal" in="SourceGraphic" in2="BackgroundImageFix" result="shape"/>
<feGaussianBlur stdDeviation="8.75" result="effect1_foregroundBlur_63_317"/>
</filter>
<filter id="filter33_f_63_317" x="146.556" y="157.826" width="56.724" height="93.6083" filterUnits="userSpaceOnUse" color-interpolation-filters="sRGB">
<feFlood flood-opacity="0" result="BackgroundImageFix"/>
<feBlend mode="normal" in="SourceGraphic" in2="BackgroundImageFix" result="shape"/>
<feGaussianBlur stdDeviation="8.75" result="effect1_foregroundBlur_63_317"/>
</filter>
<filter id="filter34_f_63_317" x="172.258" y="160.779" width="55.3326" height="83.5638" filterUnits="userSpaceOnUse" color-interpolation-filters="sRGB">
<feFlood flood-opacity="0" result="BackgroundImageFix"/>
<feBlend mode="normal" in="SourceGraphic" in2="BackgroundImageFix" result="shape"/>
<feGaussianBlur stdDeviation="8.75" result="effect1_foregroundBlur_63_317"/>
</filter>
<filter id="filter35_f_63_317" x="215.981" y="162.553" width="59.8704" height="88.2906" filterUnits="userSpaceOnUse" color-interpolation-filters="sRGB">
<feFlood flood-opacity="0" result="BackgroundImageFix"/>
<feBlend mode="normal" in="SourceGraphic" in2="BackgroundImageFix" result="shape"/>
<feGaussianBlur stdDeviation="8.75" result="effect1_foregroundBlur_63_317"/>
</filter>
<filter id="filter36_f_63_317" x="232.82" y="162.848" width="64.2134" height="99.8123" filterUnits="userSpaceOnUse" color-interpolation-filters="sRGB">
<feFlood flood-opacity="0" result="BackgroundImageFix"/>
<feBlend mode="normal" in="SourceGraphic" in2="BackgroundImageFix" result="shape"/>
<feGaussianBlur stdDeviation="8.75" result="effect1_foregroundBlur_63_317"/>
</filter>
<filter id="filter37_f_63_317" x="132.947" y="250.771" width="138.905" height="85.4243" filterUnits="userSpaceOnUse" color-interpolation-filters="sRGB">
<feFlood flood-opacity="0" result="BackgroundImageFix"/>
<feBlend mode="normal" in="SourceGraphic" in2="BackgroundImageFix" result="shape"/>
<feGaussianBlur stdDeviation="8.75" result="effect1_foregroundBlur_63_317"/>
</filter>
<filter id="filter38_f_63_317" x="92.08" y="173.963" width="68.0041" height="139.397" filterUnits="userSpaceOnUse" color-interpolation-filters="sRGB">
<feFlood flood-opacity="0" result="BackgroundImageFix"/>
<feBlend mode="normal" in="SourceGraphic" in2="BackgroundImageFix" result="shape"/>
<feGaussianBlur stdDeviation="8.75" result="effect1_foregroundBlur_63_317"/>
</filter>
<filter id="filter39_f_63_317" x="0.499997" y="196.611" width="98.5307" height="114.779" filterUnits="userSpaceOnUse" color-interpolation-filters="sRGB">
<feFlood flood-opacity="0" result="BackgroundImageFix"/>
<feBlend mode="normal" in="SourceGraphic" in2="BackgroundImageFix" result="shape"/>
<feGaussianBlur stdDeviation="8.75" result="effect1_foregroundBlur_63_317"/>
</filter>
<filter id="filter40_f_63_317" x="106.366" y="128.828" width="59.0477" height="82.4794" filterUnits="userSpaceOnUse" color-interpolation-filters="sRGB">
<feFlood flood-opacity="0" result="BackgroundImageFix"/>
<feBlend mode="normal" in="SourceGraphic" in2="BackgroundImageFix" result="shape"/>
<feGaussianBlur stdDeviation="8.75" result="effect1_foregroundBlur_63_317"/>
</filter>
<filter id="filter41_f_63_317" x="82.3954" y="127.951" width="70.5187" height="80.1409" filterUnits="userSpaceOnUse" color-interpolation-filters="sRGB">
<feFlood flood-opacity="0" result="BackgroundImageFix"/>
<feBlend mode="normal" in="SourceGraphic" in2="BackgroundImageFix" result="shape"/>
<feGaussianBlur stdDeviation="8.75" result="effect1_foregroundBlur_63_317"/>
</filter>
<filter id="filter42_f_63_317" x="84.2637" y="91.119" width="66.8721" height="99.4018" filterUnits="userSpaceOnUse" color-interpolation-filters="sRGB">
<feFlood flood-opacity="0" result="BackgroundImageFix"/>
<feBlend mode="normal" in="SourceGraphic" in2="BackgroundImageFix" result="shape"/>
<feGaussianBlur stdDeviation="8.75" result="effect1_foregroundBlur_63_317"/>
</filter>
<filter id="filter43_f_63_317" x="96.0928" y="79.0684" width="42.1033" height="54.7167" filterUnits="userSpaceOnUse" color-interpolation-filters="sRGB">
<feFlood flood-opacity="0" result="BackgroundImageFix"/>
<feBlend mode="normal" in="SourceGraphic" in2="BackgroundImageFix" result="shape"/>
<feGaussianBlur stdDeviation="8.75" result="effect1_foregroundBlur_63_317"/>
</filter>
<filter id="filter44_f_63_317" x="145.325" y="8.26941" width="86.4474" height="50.2411" filterUnits="userSpaceOnUse" color-interpolation-filters="sRGB">
<feFlood flood-opacity="0" result="BackgroundImageFix"/>
<feBlend mode="normal" in="SourceGraphic" in2="BackgroundImageFix" result="shape"/>
<feGaussianBlur stdDeviation="8.75" result="effect1_foregroundBlur_63_317"/>
</filter>
<filter id="filter45_f_63_317" x="118.878" y="0.132751" width="60.4131" height="73.0265" filterUnits="userSpaceOnUse" color-interpolation-filters="sRGB">
<feFlood flood-opacity="0" result="BackgroundImageFix"/>
<feBlend mode="normal" in="SourceGraphic" in2="BackgroundImageFix" result="shape"/>
<feGaussianBlur stdDeviation="8.75" result="effect1_foregroundBlur_63_317"/>
</filter>
<filter id="filter46_f_63_317" x="180.317" y="53.4335" width="61.2269" height="114.529" filterUnits="userSpaceOnUse" color-interpolation-filters="sRGB">
<feFlood flood-opacity="0" result="BackgroundImageFix"/>
<feBlend mode="normal" in="SourceGraphic" in2="BackgroundImageFix" result="shape"/>
<feGaussianBlur stdDeviation="8.75" result="effect1_foregroundBlur_63_317"/>
</filter>
</defs>
</svg>
