<svg width="21" height="21" viewBox="0 0 21 21" fill="none" xmlns="http://www.w3.org/2000/svg">
<g clip-path="url(#clip0_63_279)">
<path d="M10.5 2.63283C8.9529 2.63283 7.46917 3.24741 6.37521 4.34138C5.28125 5.43534 4.66667 6.91907 4.66667 8.46617C4.66667 10.8512 6.15167 13.152 7.78167 14.9345C8.61512 15.8425 9.52453 16.6778 10.5 17.4312C10.6456 17.3195 10.8164 17.1834 11.0125 17.0228C11.7957 16.3797 12.5328 15.6825 13.2183 14.9362C14.8483 13.152 16.3333 10.852 16.3333 8.46617C16.3333 6.91907 15.7188 5.43534 14.6248 4.34138C13.5308 3.24741 12.0471 2.63283 10.5 2.63283ZM10.5 19.4778L10.0275 19.1528L10.025 19.1512L10.02 19.147L10.0033 19.1353L9.94083 19.0912L9.71583 18.927C8.57572 18.0702 7.51656 17.1106 6.55167 16.0603C4.84833 14.1953 3 11.4962 3 8.46533C3 6.47621 3.79018 4.56855 5.1967 3.16203C6.60322 1.75551 8.51088 0.965332 10.5 0.965332C12.4891 0.965332 14.3968 1.75551 15.8033 3.16203C17.2098 4.56855 18 6.47621 18 8.46533C18 11.4962 16.1517 14.1962 14.4483 16.0587C13.4837 17.1089 12.4248 18.0684 11.285 18.9253C11.19 18.9963 11.0942 19.066 10.9975 19.1345L10.98 19.1462L10.975 19.1503L10.9733 19.1512L10.5 19.4778ZM10.5 6.7995C10.058 6.7995 9.63405 6.97509 9.32149 7.28765C9.00893 7.60022 8.83333 8.02414 8.83333 8.46617C8.83333 8.90819 9.00893 9.33212 9.32149 9.64468C9.63405 9.95724 10.058 10.1328 10.5 10.1328C10.942 10.1328 11.366 9.95724 11.6785 9.64468C11.9911 9.33212 12.1667 8.90819 12.1667 8.46617C12.1667 8.02414 11.9911 7.60022 11.6785 7.28765C11.366 6.97509 10.942 6.7995 10.5 6.7995ZM7.16667 8.46617C7.16667 7.58211 7.51786 6.73426 8.14298 6.10914C8.7681 5.48402 9.61594 5.13283 10.5 5.13283C11.3841 5.13283 12.2319 5.48402 12.857 6.10914C13.4821 6.73426 13.8333 7.58211 13.8333 8.46617C13.8333 9.35022 13.4821 10.1981 12.857 10.8232C12.2319 11.4483 11.3841 11.7995 10.5 11.7995C9.61594 11.7995 8.7681 11.4483 8.14298 10.8232C7.51786 10.1981 7.16667 9.35022 7.16667 8.46617Z" fill="#EFEDED"/>
</g>
<defs>
<clipPath id="clip0_63_279">
<rect width="20" height="20" fill="white" transform="translate(0.5 0.132812)"/>
</clipPath>
</defs>
</svg>
