<svg width="21" height="21" viewBox="0 0 21 21" fill="none" xmlns="http://www.w3.org/2000/svg">
<path d="M7.16668 2.63281C7.58334 2.63281 9.25001 6.38281 9.25001 6.79948C9.25001 7.63281 8.00001 8.46615 7.58334 9.29948C7.16668 10.1328 8.00001 10.9661 8.83334 11.7995C9.15834 12.1245 10.5 13.4661 11.3333 13.0495C12.1667 12.6328 13 11.3828 13.8333 11.3828C14.25 11.3828 18 13.0495 18 13.4661C18 15.1328 16.75 16.3828 15.5 16.7995C14.25 17.2161 13.4167 17.2161 11.75 16.7995C10.0833 16.3828 8.83334 15.9661 6.75001 13.8828C4.66668 11.7995 4.25001 10.5495 3.83334 8.88281C3.41668 7.21615 3.41668 6.38281 3.83334 5.13281C4.25001 3.88281 5.50001 2.63281 7.16668 2.63281Z" stroke="#EFEDED" stroke-width="2" stroke-linecap="round" stroke-linejoin="round"/>
</svg>
