<svg width="53" height="52" viewBox="0 0 53 52" fill="none" xmlns="http://www.w3.org/2000/svg">
<path d="M47.9414 16.2744C47.4838 15.7558 46.9212 15.3406 46.2908 15.0562C45.6604 14.7719 44.9767 14.6249 44.2852 14.625H32.9102V11.375C32.9102 9.22012 32.0541 7.15349 30.5304 5.62976C29.0067 4.10602 26.94 3.25 24.7852 3.25C24.4833 3.24978 24.1873 3.33367 23.9304 3.49225C23.6735 3.65083 23.4659 3.87784 23.3308 4.14781L15.6567 19.5H6.91016C6.0482 19.5 5.22155 19.8424 4.61206 20.4519C4.00257 21.0614 3.66016 21.888 3.66016 22.75V40.625C3.66016 41.487 4.00257 42.3136 4.61206 42.9231C5.22155 43.5326 6.0482 43.875 6.91016 43.875H41.8477C43.0353 43.8754 44.1823 43.4422 45.0732 42.6568C45.9641 41.8714 46.5376 40.7877 46.6861 39.6094L49.1236 20.1094C49.21 19.4229 49.1493 18.7258 48.9454 18.0646C48.7416 17.4034 48.3993 16.7931 47.9414 16.2744ZM6.91016 22.75H15.0352V40.625H6.91016V22.75Z" fill="#D30000"/>
</svg>
