<svg width="53" height="53" viewBox="0 0 53 53" fill="none" xmlns="http://www.w3.org/2000/svg">
<path d="M26.4101 38.657C26.9313 39.0041 27.4741 39.3175 28.0351 39.5954V47.625C28.0351 48.0559 27.8639 48.4693 27.5592 48.774C27.2544 49.0788 26.8411 49.25 26.4101 49.25C25.9792 49.25 25.5658 49.0788 25.2611 48.774C24.9563 48.4693 24.7851 48.0559 24.7851 47.625V39.5954C25.3462 39.3175 25.889 39.0041 26.4101 38.657ZM40.6492 13.2136C39.4737 10.4069 37.4949 8.01018 34.9615 6.32461C32.4281 4.63903 29.4531 3.73975 26.4101 3.73975C23.3672 3.73975 20.3922 4.63903 17.8588 6.32461C15.3254 8.01018 13.3466 10.4069 12.1711 13.2136C9.63244 14.3739 7.48064 16.2392 5.97178 18.5875C4.46292 20.9357 3.66054 23.6681 3.66014 26.4593C3.63983 34.2187 10.1601 40.9218 17.9073 41.125C20.2901 41.1814 22.6508 40.6565 24.7851 39.5954V32.3784L15.933 27.9543C15.5472 27.7615 15.2539 27.4233 15.1175 27.0142C14.9812 26.605 15.0129 26.1585 15.2058 25.7728C15.3986 25.3871 15.7368 25.0937 16.1459 24.9574C16.5551 24.821 17.0016 24.8527 17.3873 25.0456L24.7851 28.7465V18.375C24.7851 17.944 24.9563 17.5307 25.2611 17.2259C25.5658 16.9212 25.9792 16.75 26.4101 16.75C26.8411 16.75 27.2544 16.9212 27.5592 17.2259C27.8639 17.5307 28.0351 17.944 28.0351 18.375V23.8715L35.433 20.1706C35.6239 20.0751 35.8319 20.0182 36.0449 20.003C36.2579 19.9879 36.4718 20.0148 36.6743 20.0824C36.8769 20.1499 37.0642 20.2567 37.2255 20.3966C37.3868 20.5365 37.519 20.7068 37.6145 20.8978C37.71 21.0888 37.767 21.2967 37.7821 21.5097C37.7972 21.7227 37.7703 21.9366 37.7027 22.1392C37.6352 22.3417 37.5284 22.529 37.3885 22.6904C37.2486 22.8517 37.0783 22.9839 36.8873 23.0793L28.0351 27.5034V39.5954C30.0553 40.5985 32.2797 41.122 34.5351 41.125H34.9048C42.6601 40.9218 49.1825 34.2187 49.1601 26.4593C49.1597 23.6681 48.3574 20.9357 46.8485 18.5875C45.3396 16.2392 43.1878 14.3739 40.6492 13.2136Z" fill="black"/>
</svg>
