<svg width="32" height="31" viewBox="0 0 32 31" fill="none" xmlns="http://www.w3.org/2000/svg">
<g clip-path="url(#clip0_63_116)">
<path d="M31.176 14.1898L29.5085 10.0212C29.3671 9.66852 29.123 9.36643 28.8079 9.15407C28.4927 8.94172 28.1211 8.82888 27.7411 8.83019H23.6225V7.87738C23.6225 7.62467 23.5221 7.38232 23.3435 7.20363C23.1648 7.02495 22.9224 6.92456 22.6697 6.92456H4.56621C4.0608 6.92456 3.5761 7.12533 3.21872 7.48271C2.86135 7.84008 2.66058 8.32479 2.66058 8.83019V22.1696C2.66058 22.675 2.86135 23.1597 3.21872 23.5171C3.5761 23.8745 4.0608 24.0753 4.56621 24.0753H6.59094C6.80085 24.8951 7.27764 25.6217 7.94614 26.1406C8.61465 26.6595 9.43684 26.9412 10.2831 26.9412C11.1294 26.9412 11.9516 26.6595 12.6201 26.1406C13.2886 25.6217 13.7654 24.8951 13.9753 24.0753H19.9304C20.1403 24.8951 20.6171 25.6217 21.2856 26.1406C21.9541 26.6595 22.7763 26.9412 23.6225 26.9412C24.4688 26.9412 25.291 26.6595 25.9595 26.1406C26.628 25.6217 27.1048 24.8951 27.3147 24.0753H29.3394C29.8448 24.0753 30.3295 23.8745 30.6869 23.5171C31.0443 23.1597 31.2451 22.675 31.2451 22.1696V14.5471C31.2454 14.4246 31.2219 14.3033 31.176 14.1898ZM23.6225 10.7358H27.7411L28.8845 13.5943H23.6225V10.7358ZM4.56621 8.83019H21.7169V16.4527H4.56621V8.83019ZM10.2831 25.0281C9.90621 25.0281 9.53777 24.9163 9.22439 24.7069C8.91101 24.4975 8.66676 24.1999 8.52253 23.8517C8.3783 23.5035 8.34056 23.1203 8.41409 22.7507C8.48762 22.381 8.66911 22.0415 8.93562 21.775C9.20213 21.5084 9.54168 21.3269 9.91133 21.2534C10.281 21.1799 10.6641 21.2176 11.0124 21.3619C11.3606 21.5061 11.6582 21.7503 11.8676 22.0637C12.077 22.3771 12.1887 22.7455 12.1887 23.1224C12.1887 23.6278 11.988 24.1125 11.6306 24.4699C11.2732 24.8273 10.7885 25.0281 10.2831 25.0281ZM19.9304 22.1696H13.9753C13.7654 21.3498 13.2886 20.6232 12.6201 20.1043C11.9516 19.5854 11.1294 19.3037 10.2831 19.3037C9.43684 19.3037 8.61465 19.5854 7.94614 20.1043C7.27764 20.6232 6.80085 21.3498 6.59094 22.1696H4.56621V18.3584H21.7169V19.8245C21.2788 20.0777 20.8952 20.4154 20.5886 20.818C20.2819 21.2205 20.0582 21.68 19.9304 22.1696ZM23.6225 25.0281C23.2456 25.0281 22.8772 24.9163 22.5638 24.7069C22.2504 24.4975 22.0062 24.1999 21.862 23.8517C21.7177 23.5035 21.68 23.1203 21.7535 22.7507C21.827 22.381 22.0085 22.0415 22.275 21.775C22.5415 21.5084 22.8811 21.3269 23.2508 21.2534C23.6204 21.1799 24.0036 21.2176 24.3518 21.3619C24.7 21.5061 24.9976 21.7503 25.207 22.0637C25.4164 22.3771 25.5282 22.7455 25.5282 23.1224C25.5282 23.6278 25.3274 24.1125 24.97 24.4699C24.6126 24.8273 24.1279 25.0281 23.6225 25.0281ZM29.3394 22.1696H27.3147C27.1023 21.3518 26.6246 20.6275 25.9564 20.1103C25.2883 19.593 24.4675 19.312 23.6225 19.3112V15.4999H29.3394V22.1696Z" fill="#B60204"/>
</g>
<defs>
<clipPath id="clip0_63_116">
<rect width="30.4901" height="30.4901" fill="white" transform="translate(0.754944 0.254883)"/>
</clipPath>
</defs>
</svg>
