<svg width="27" height="24" viewBox="0 0 27 24" fill="none" xmlns="http://www.w3.org/2000/svg">
<path d="M14.3911 23.3952C14.2511 23.6056 14.0334 23.7517 13.7857 23.8015C13.538 23.8513 13.2806 23.8007 13.0703 23.6608C9.48072 21.2729 5.26407 20.0022 0.952816 20.0091C0.700114 20.0091 0.457761 19.9088 0.279073 19.7301C0.100386 19.5514 0 19.309 0 19.0563C0 18.8036 0.100386 18.5613 0.279073 18.3826C0.457761 18.2039 0.700114 18.1035 0.952816 18.1035C5.63963 18.0963 10.2235 19.4781 14.1255 22.0744C14.3358 22.2143 14.482 22.4321 14.5318 22.6798C14.5816 22.9275 14.531 23.1848 14.3911 23.3952ZM0.952816 14.2922C0.700114 14.2922 0.457761 14.3926 0.279073 14.5713C0.100386 14.75 0 14.9924 0 15.2451C0 15.4978 0.100386 15.7401 0.279073 15.9188C0.457761 16.0975 0.700114 16.1979 0.952816 16.1979C7.68783 16.1825 14.1573 18.8234 18.9575 23.5477C19.046 23.6387 19.1519 23.7112 19.2689 23.7607C19.3858 23.8103 19.5115 23.8359 19.6385 23.8362C19.7656 23.8365 19.8914 23.8113 20.0085 23.7623C20.1257 23.7132 20.2319 23.6412 20.3208 23.5505C20.4098 23.4599 20.4797 23.3523 20.5264 23.2342C20.5732 23.1161 20.5959 22.9898 20.5931 22.8628C20.5904 22.7358 20.5623 22.6107 20.5105 22.4947C20.4587 22.3787 20.3842 22.2743 20.2914 22.1875C15.136 17.1125 8.18704 14.2755 0.952816 14.2922ZM25.726 16.1979C23.7785 16.1966 21.837 16.4159 19.9389 16.8517C20.5931 17.348 21.2283 17.8705 21.8445 18.4191C23.1277 18.209 24.4258 18.1034 25.726 18.1035C25.9787 18.1035 26.2211 18.2039 26.3998 18.3826C26.5785 18.5613 26.6788 18.8036 26.6788 19.0563C26.6788 19.309 26.5785 19.5514 26.3998 19.7301C26.2211 19.9088 25.9787 20.0091 25.726 20.0091C25.0114 20.0091 24.3051 20.0437 23.6001 20.1116C24.2607 20.8 24.8935 21.5201 25.4985 22.2721C25.5814 22.3691 25.644 22.4819 25.6824 22.6035C25.7209 22.7252 25.7346 22.8534 25.7225 22.9805C25.7105 23.1075 25.6731 23.2309 25.6125 23.3432C25.5519 23.4556 25.4694 23.5546 25.3698 23.6344C25.2702 23.7142 25.1555 23.7732 25.0327 23.8078C24.9099 23.8425 24.7813 23.8521 24.6547 23.8361C24.5281 23.8202 24.4059 23.7789 24.2956 23.7148C24.1852 23.6507 24.0888 23.5651 24.0122 23.4631C21.2504 19.9999 17.7423 17.2051 13.7495 15.2872C9.7567 13.3692 5.38235 12.3777 0.952816 12.3866C0.700114 12.3866 0.457761 12.2862 0.279073 12.1075C0.100386 11.9288 0 11.6865 0 11.4338C0 11.1811 0.100386 10.9387 0.279073 10.7601C0.457761 10.5814 0.700114 10.481 0.952816 10.481C2.87026 10.4813 4.78373 10.6555 6.66971 11.0015V6.66971C6.66971 6.52179 6.70415 6.3759 6.7703 6.2436C6.83646 6.1113 6.9325 5.99621 7.05084 5.90746L14.6734 0.190563C14.8383 0.0668666 15.0389 0 15.2451 0C15.4512 0 15.6518 0.0668666 15.8167 0.190563L23.4393 5.90746C23.5576 5.99621 23.6537 6.1113 23.7198 6.2436C23.786 6.3759 23.8204 6.52179 23.8204 6.66971V10.5393C24.4528 10.5024 25.0876 10.481 25.726 10.481C25.9787 10.481 26.2211 10.5814 26.3998 10.7601C26.5785 10.9387 26.6788 11.1811 26.6788 11.4338C26.6788 11.6865 26.5785 11.9288 26.3998 12.1075C26.2211 12.2862 25.9787 12.3866 25.726 12.3866C22.3044 12.3801 18.908 12.9722 15.6905 14.1362C16.44 14.5332 17.1729 14.9612 17.8891 15.4201C20.4338 14.6702 23.0732 14.2904 25.726 14.2922C25.9787 14.2922 26.2211 14.3926 26.3998 14.5713C26.5785 14.75 26.6788 14.9924 26.6788 15.2451C26.6788 15.4978 26.5785 15.7401 26.3998 15.9188C26.2211 16.0975 25.9787 16.1979 25.726 16.1979ZM12.3866 7.62253H18.1035C18.3562 7.62253 18.5986 7.72291 18.7772 7.9016C18.9559 8.08029 19.0563 8.32264 19.0563 8.57534V11.1884C19.9996 10.9852 20.9524 10.8264 21.9148 10.712V7.14612L15.2451 2.14384L8.57534 7.14612V11.4112C9.54325 11.6494 10.4961 11.9344 11.4338 12.2663V8.57534C11.4338 8.32264 11.5342 8.08029 11.7129 7.9016C11.8916 7.72291 12.1339 7.62253 12.3866 7.62253ZM13.3478 13.0143C14.585 12.483 15.8553 12.0323 17.1507 11.6649V9.52816H13.3394V13.0107L13.3478 13.0143Z" fill="white"/>
</svg>
