<svg width="31" height="31" viewBox="0 0 31 31" fill="none" xmlns="http://www.w3.org/2000/svg">
<path d="M16.6415 26.5085C16.5016 26.7188 16.2838 26.865 16.0361 26.9148C15.7884 26.9646 15.5311 26.914 15.3207 26.7741C11.7311 24.3862 7.5145 23.1154 3.20324 23.1224C2.95054 23.1224 2.70819 23.022 2.5295 22.8433C2.35081 22.6647 2.25043 22.4223 2.25043 22.1696C2.25043 21.9169 2.35081 21.6745 2.5295 21.4959C2.70819 21.3172 2.95054 21.2168 3.20324 21.2168C7.89006 21.2096 12.4739 22.5914 16.3759 25.1876C16.5863 25.3276 16.7324 25.5454 16.7822 25.7931C16.832 26.0408 16.7814 26.2981 16.6415 26.5085ZM3.20324 17.4055C2.95054 17.4055 2.70819 17.5059 2.5295 17.6846C2.35081 17.8633 2.25043 18.1056 2.25043 18.3583C2.25043 18.611 2.35081 18.8534 2.5295 19.0321C2.70819 19.2108 2.95054 19.3112 3.20324 19.3112C9.93826 19.2957 16.4077 21.9367 21.2079 26.6609C21.2965 26.752 21.4023 26.8244 21.5193 26.874C21.6362 26.9235 21.7619 26.9492 21.889 26.9495C22.016 26.9498 22.1418 26.9246 22.259 26.8756C22.3761 26.8265 22.4823 26.7545 22.5712 26.6638C22.6602 26.5731 22.7301 26.4656 22.7769 26.3475C22.8236 26.2294 22.8463 26.1031 22.8436 25.9761C22.8408 25.8491 22.8127 25.724 22.7609 25.608C22.7091 25.492 22.6346 25.3876 22.5418 25.3008C17.3864 20.2258 10.4375 17.3888 3.20324 17.4055ZM27.9765 19.3112C26.0289 19.3099 24.0875 19.5292 22.1893 19.965C22.8436 20.4613 23.4788 20.9837 24.0949 21.5324C25.3781 21.3222 26.6762 21.2167 27.9765 21.2168C28.2292 21.2168 28.4715 21.3172 28.6502 21.4959C28.8289 21.6745 28.9293 21.9169 28.9293 22.1696C28.9293 22.4223 28.8289 22.6647 28.6502 22.8433C28.4715 23.022 28.2292 23.1224 27.9765 23.1224C27.2618 23.1224 26.5556 23.157 25.8505 23.2248C26.5111 23.9133 27.1439 24.6334 27.749 25.3854C27.8319 25.4824 27.8944 25.5951 27.9329 25.7168C27.9713 25.8385 27.985 25.9667 27.973 26.0938C27.961 26.2208 27.9235 26.3442 27.8629 26.4565C27.8023 26.5688 27.7198 26.6678 27.6202 26.7476C27.5206 26.8275 27.406 26.8864 27.2831 26.9211C27.1603 26.9558 27.0318 26.9654 26.9051 26.9494C26.7785 26.9334 26.6564 26.8922 26.546 26.8281C26.4356 26.764 26.3392 26.6784 26.2626 26.5764C23.5009 23.1132 19.9927 20.3184 15.9999 18.4004C12.0071 16.4825 7.63277 15.491 3.20324 15.4999C2.95054 15.4999 2.70819 15.3995 2.5295 15.2208C2.35081 15.0421 2.25043 14.7998 2.25043 14.5471C2.25043 14.2944 2.35081 14.052 2.5295 13.8733C2.70819 13.6946 2.95054 13.5943 3.20324 13.5943C5.12069 13.5946 7.03416 13.7688 8.92014 14.1147V9.78299C8.92014 9.63507 8.95458 9.48919 9.02073 9.35688C9.08688 9.22458 9.18293 9.10949 9.30127 9.02074L16.9238 3.30384C17.0887 3.18015 17.2893 3.11328 17.4955 3.11328C17.7016 3.11328 17.9022 3.18015 18.0672 3.30384L25.6897 9.02074C25.808 9.10949 25.9041 9.22458 25.9702 9.35688C26.0364 9.48919 26.0708 9.63507 26.0708 9.78299V13.6526C26.7033 13.6157 27.3381 13.5943 27.9765 13.5943C28.2292 13.5943 28.4715 13.6946 28.6502 13.8733C28.8289 14.052 28.9293 14.2944 28.9293 14.5471C28.9293 14.7998 28.8289 15.0421 28.6502 15.2208C28.4715 15.3995 28.2292 15.4999 27.9765 15.4999C24.5548 15.4934 21.1585 16.0855 17.9409 17.2495C18.6905 17.6465 19.4233 18.0745 20.1395 18.5334C22.6842 17.7835 25.3236 17.4037 27.9765 17.4055C28.2292 17.4055 28.4715 17.5059 28.6502 17.6846C28.8289 17.8633 28.9293 18.1056 28.9293 18.3583C28.9293 18.611 28.8289 18.8534 28.6502 19.0321C28.4715 19.2108 28.2292 19.3112 27.9765 19.3112ZM14.637 10.7358H20.3539C20.6066 10.7358 20.849 10.8362 21.0277 11.0149C21.2064 11.1936 21.3067 11.4359 21.3067 11.6886V14.3017C22.25 14.0985 23.2029 13.9397 24.1652 13.8253V10.2594L17.4955 5.25712L10.8258 10.2594V14.5244C11.7937 14.7626 12.7465 15.0477 13.6842 15.3796V11.6886C13.6842 11.4359 13.7846 11.1936 13.9633 11.0149C14.142 10.8362 14.3843 10.7358 14.637 10.7358ZM15.5982 16.1276C16.8354 15.5963 18.1057 15.1456 19.4011 14.7781V12.6414H15.5899V16.124L15.5982 16.1276Z" fill="#B60204"/>
</svg>
