<svg width="29" height="21" viewBox="0 0 29 21" fill="none" xmlns="http://www.w3.org/2000/svg">
<path d="M28.5154 7.26522L26.848 3.09665C26.7065 2.74396 26.4624 2.44186 26.1473 2.22951C25.8321 2.01716 25.4605 1.90432 25.0805 1.90563H20.962V0.952816C20.962 0.700114 20.8616 0.457761 20.6829 0.279074C20.5042 0.100386 20.2618 0 20.0091 0H1.90563C1.40023 0 0.915522 0.200771 0.558147 0.558147C0.200771 0.915522 0 1.40023 0 1.90563V15.2451C0 15.7505 0.200771 16.2352 0.558147 16.5925C0.915522 16.9499 1.40023 17.1507 1.90563 17.1507H3.93037C4.14027 17.9705 4.61706 18.6971 5.28557 19.2161C5.95407 19.735 6.77627 20.0166 7.62253 20.0166C8.46879 20.0166 9.29099 19.735 9.95949 19.2161C10.628 18.6971 11.1048 17.9705 11.3147 17.1507H17.2698C17.4797 17.9705 17.9565 18.6971 18.625 19.2161C19.2935 19.735 20.1157 20.0166 20.962 20.0166C21.8082 20.0166 22.6304 19.735 23.2989 19.2161C23.9674 18.6971 24.4442 17.9705 24.6541 17.1507H26.6788C27.1843 17.1507 27.669 16.9499 28.0263 16.5925C28.3837 16.2352 28.5845 15.7505 28.5845 15.2451V7.62253C28.5848 7.50008 28.5613 7.37873 28.5154 7.26522ZM20.962 3.81126H25.0805L26.2239 6.66971H20.962V3.81126ZM1.90563 1.90563H19.0563V9.52816H1.90563V1.90563ZM7.62253 18.1035C7.24563 18.1035 6.8772 17.9917 6.56382 17.7823C6.25044 17.573 6.00619 17.2753 5.86195 16.9271C5.71772 16.5789 5.67998 16.1958 5.75351 15.8261C5.82704 15.4564 6.00854 15.1169 6.27504 14.8504C6.54155 14.5839 6.8811 14.4024 7.25076 14.3289C7.62041 14.2553 8.00357 14.2931 8.35178 14.4373C8.69999 14.5815 8.99761 14.8258 9.207 15.1392C9.4164 15.4525 9.52816 15.821 9.52816 16.1979C9.52816 16.7033 9.32739 17.188 8.97001 17.5454C8.61264 17.9027 8.12793 18.1035 7.62253 18.1035ZM17.2698 15.2451H11.3147C11.1048 14.4252 10.628 13.6986 9.95949 13.1797C9.29099 12.6608 8.46879 12.3791 7.62253 12.3791C6.77627 12.3791 5.95407 12.6608 5.28557 13.1797C4.61706 13.6986 4.14027 14.4252 3.93037 15.2451H1.90563V11.4338H19.0563V12.8999C18.6182 13.1532 18.2347 13.4909 17.928 13.8934C17.6213 14.296 17.3976 14.7554 17.2698 15.2451ZM20.962 18.1035C20.5851 18.1035 20.2166 17.9917 19.9032 17.7823C19.5899 17.573 19.3456 17.2753 19.2014 16.9271C19.0571 16.5789 19.0194 16.1958 19.0929 15.8261C19.1665 15.4564 19.348 15.1169 19.6145 14.8504C19.881 14.5839 20.2205 14.4024 20.5902 14.3289C20.9598 14.2553 21.343 14.2931 21.6912 14.4373C22.0394 14.5815 22.337 14.8258 22.5464 15.1392C22.7558 15.4525 22.8676 15.821 22.8676 16.1979C22.8676 16.7033 22.6668 17.188 22.3094 17.5454C21.9521 17.9027 21.4674 18.1035 20.962 18.1035ZM26.6788 15.2451H24.6541C24.4417 14.4272 23.964 13.703 23.2959 13.1857C22.6277 12.6684 21.8069 12.3874 20.962 12.3866V8.57535H26.6788V15.2451Z" fill="white"/>
</svg>
