<svg width="21" height="27" viewBox="0 0 21 27" fill="none" xmlns="http://www.w3.org/2000/svg">
<path d="M17.4675 5.18808C15.301 1.94017 12.6891 0 10.481 0C8.27283 0 5.66092 1.94017 3.49445 5.18808C1.27439 8.52056 0 12.5331 0 16.1979C0 18.9776 1.10424 21.6435 3.06981 23.609C5.03537 25.5746 7.70125 26.6788 10.481 26.6788C13.2607 26.6788 15.9266 25.5746 17.8921 23.609C19.8577 21.6435 20.962 18.9776 20.962 16.1979C20.962 12.5331 19.6876 8.52056 17.4675 5.18808ZM10.481 24.7732C8.20743 24.7707 6.02772 23.8664 4.42008 22.2588C2.81244 20.6511 1.90815 18.4714 1.90563 16.1979C1.90563 12.8999 3.0633 9.27209 5.08089 6.24571C6.81144 3.64929 8.98148 1.90563 10.481 1.90563C11.6124 1.90563 13.125 2.89775 14.5424 4.49967L9.76636 9.84616C9.65707 9.96831 9.58114 10.1166 9.54591 10.2767C9.51067 10.4367 9.51733 10.6032 9.56523 10.7599C9.61312 10.9167 9.70065 11.0584 9.81934 11.1715C9.93803 11.2845 10.0839 11.365 10.2428 11.4052L13.1727 12.1377L12.3985 16.0109C12.3491 16.2585 12.3999 16.5157 12.54 16.7258C12.68 16.9359 12.8977 17.0819 13.1453 17.1316C13.2091 17.1448 13.2742 17.1512 13.3394 17.1507C13.5594 17.1503 13.7724 17.0738 13.9424 16.9342C14.1124 16.7946 14.2288 16.6005 14.272 16.3849L15.2248 11.6208C15.2728 11.3808 15.2267 11.1314 15.0958 10.9246C14.965 10.7177 14.7596 10.5691 14.5221 10.5096L12.2401 9.93906L15.7334 6.02656C15.7834 6.09921 15.8322 6.17187 15.8811 6.24571C17.8986 9.27209 19.0563 12.8999 19.0563 16.1979C19.0538 18.4714 18.1495 20.6511 16.5419 22.2588C14.9342 23.8664 12.7545 24.7707 10.481 24.7732Z" fill="white"/>
</svg>
