<svg width="53" height="53" viewBox="0 0 53 53" fill="none" xmlns="http://www.w3.org/2000/svg">
<path d="M49.1601 39.3184H47.5351V26.8404L47.8378 27.2629C47.9574 27.4469 48.1131 27.6048 48.2954 27.7271C48.4777 27.8493 48.6829 27.9333 48.8986 27.9741C49.1143 28.0149 49.336 28.0115 49.5504 27.9642C49.7647 27.9169 49.9673 27.8267 50.1458 27.699C50.3243 27.5713 50.4751 27.4087 50.5891 27.2211C50.7031 27.0335 50.7778 26.8248 50.8089 26.6075C50.84 26.3902 50.8268 26.1689 50.77 25.9568C50.7132 25.7448 50.614 25.5465 50.4784 25.3738L42.3534 13.9988C42.2421 13.8447 42.1046 13.7113 41.9472 13.6048L28.2383 4.13102L28.218 4.1168C27.6839 3.76047 27.0562 3.57031 26.4142 3.57031C25.7722 3.57031 25.1445 3.76047 24.6105 4.1168L24.5901 4.13102L10.8609 13.6068C10.7035 13.7134 10.566 13.8468 10.4547 14.0009L2.32968 25.3759C2.19412 25.5485 2.09495 25.7468 2.03814 25.9589C1.98134 26.1709 1.96808 26.3922 1.99917 26.6095C2.03025 26.8268 2.10504 27.0355 2.21901 27.2231C2.33299 27.4107 2.48379 27.5733 2.66231 27.701C2.84084 27.8287 3.04339 27.9189 3.25774 27.9662C3.47209 28.0135 3.6938 28.0169 3.90949 27.9761C4.12518 27.9354 4.33037 27.8513 4.51269 27.7291C4.69502 27.6069 4.85068 27.449 4.9703 27.2649L5.28514 26.8404V39.3184H3.66014C3.22917 39.3184 2.81584 39.4896 2.5111 39.7943C2.20635 40.0991 2.03514 40.5124 2.03514 40.9434C2.03514 41.3743 2.20635 41.7877 2.5111 42.0924C2.81584 42.3972 3.22917 42.5684 3.66014 42.5684H49.1601C49.5911 42.5684 50.0044 42.3972 50.3092 42.0924C50.6139 41.7877 50.7851 41.3743 50.7851 40.9434C50.7851 40.5124 50.6139 40.0991 50.3092 39.7943C50.0044 39.4896 49.5911 39.3184 49.1601 39.3184ZM23.1601 16.5684H29.6601C30.0911 16.5684 30.5044 16.7396 30.8092 17.0443C31.1139 17.3491 31.2851 17.7624 31.2851 18.1934C31.2851 18.6243 31.1139 19.0377 30.8092 19.3424C30.5044 19.6472 30.0911 19.8184 29.6601 19.8184H23.1601C22.7292 19.8184 22.3158 19.6472 22.0111 19.3424C21.7063 19.0377 21.5351 18.6243 21.5351 18.1934C21.5351 17.7624 21.7063 17.3491 22.0111 17.0443C22.3158 16.7396 22.7292 16.5684 23.1601 16.5684ZM33.8526 24.6934L26.4101 30.0091L18.9676 24.6934H33.8526ZM15.0351 25.8776L23.6151 32.0059L15.0351 38.1341V25.8776ZM18.9676 39.3184L26.4101 34.0026L33.8526 39.3184H18.9676ZM37.7851 38.1341L29.2051 32.0059L37.7851 25.8776V38.1341Z" fill="#D30000"/>
</svg>
