<svg width="53" height="53" viewBox="0 0 53 53" fill="none" xmlns="http://www.w3.org/2000/svg">
<path d="M42.6602 11.6933C40.4473 11.6935 38.2538 12.1068 36.1927 12.9121C33.2839 6.87925 27.4075 3.88112 27.1394 3.74503C26.9136 3.63206 26.6646 3.57324 26.4122 3.57324C26.1597 3.57324 25.9108 3.63206 25.685 3.74503C25.4148 3.87503 19.5384 6.87316 16.6297 12.9121C14.5679 12.1066 12.3737 11.6932 10.1602 11.6933C9.72918 11.6933 9.31585 11.8645 9.01111 12.1693C8.70636 12.474 8.53516 12.8873 8.53516 13.3183V29.5683C8.54046 33.8669 10.0925 38.02 12.9076 41.2685C15.7228 44.517 19.6129 46.6439 23.867 47.2605C23.9822 47.2756 24.0994 47.2658 24.2105 47.2318C24.3216 47.1978 24.4241 47.1404 24.5111 47.0634C24.5982 46.9863 24.6677 46.8916 24.7149 46.7854C24.7622 46.6793 24.7861 46.5642 24.7852 46.448V36.1232C24.78 35.7039 24.9335 35.2982 25.2149 34.9874C25.4963 34.6767 25.8848 34.4837 26.3025 34.4474C26.5248 34.4326 26.7477 34.4637 26.9575 34.5387C27.1672 34.6138 27.3593 34.7311 27.5218 34.8835C27.6843 35.0359 27.8137 35.2201 27.902 35.4246C27.9903 35.6291 28.0356 35.8496 28.0352 36.0724V46.4602C28.0342 46.5764 28.0581 46.6914 28.1054 46.7976C28.1527 46.9038 28.2221 46.9985 28.3092 47.0755C28.3962 47.1525 28.4987 47.21 28.6098 47.244C28.7209 47.278 28.8381 47.2878 28.9533 47.2727C33.2095 46.6558 37.1013 44.5271 39.9167 41.2761C42.732 38.025 44.2828 33.869 44.2852 29.5683V13.3183C44.2852 12.8873 44.114 12.474 43.8092 12.1693C43.5045 11.8645 43.0911 11.6933 42.6602 11.6933ZM24.7852 30.6774C23.2949 28.5533 21.3601 26.7792 19.1152 25.4782C16.8703 24.1772 14.369 23.3805 11.7852 23.1435V15.0327C15.3588 15.4367 18.6588 17.1415 21.0562 19.8222C23.4537 22.5029 24.781 25.972 24.7852 29.5683V30.6774ZM26.4102 22.1258C24.9311 18.9175 22.5405 16.2154 19.5364 14.3563C21.4072 10.4543 24.8989 7.99237 26.4102 7.06409C27.9234 7.99441 31.4131 10.4563 33.2839 14.3563C30.2798 16.2154 27.8892 18.9175 26.4102 22.1258ZM41.0352 23.1414C38.4513 23.3784 35.9501 24.1751 33.7051 25.4761C31.4602 26.7771 29.5254 28.5513 28.0352 30.6753V29.5683C28.0393 25.972 29.3666 22.5029 31.7641 19.8222C34.1616 17.1415 37.4616 15.4367 41.0352 15.0327V23.1414Z" fill="black"/>
</svg>
