<svg width="23" height="25" viewBox="0 0 23 25" fill="none" xmlns="http://www.w3.org/2000/svg">
<path d="M22.8483 24.102C22.8103 24.2213 22.7493 24.3319 22.6686 24.4276C22.588 24.5233 22.4892 24.6021 22.3781 24.6596C22.2669 24.7171 22.1455 24.7522 22.0208 24.7628C21.8961 24.7734 21.7705 24.7593 21.6513 24.7213L11.4598 21.4782L1.26824 24.7213C1.14898 24.7592 1.02342 24.7733 0.898725 24.7627C0.774029 24.7521 0.652641 24.7171 0.541492 24.6596C0.430343 24.602 0.331609 24.5232 0.250929 24.4275C0.170249 24.3319 0.109202 24.2212 0.0712737 24.102C0.0333451 23.9827 0.0192776 23.8572 0.029875 23.7325C0.0404724 23.6078 0.0755267 23.4864 0.133037 23.3752C0.190547 23.2641 0.269386 23.1654 0.365053 23.0847C0.46072 23.004 0.571342 22.9429 0.690602 22.905L8.3131 20.4789L0.690602 18.0516C0.568048 18.0165 0.45378 17.9572 0.354564 17.8772C0.255348 17.7972 0.173202 17.698 0.112989 17.5857C0.0527772 17.4733 0.0157237 17.35 0.00402257 17.2231C-0.00767853 17.0961 0.0062109 16.9681 0.0448685 16.8467C0.0835262 16.7252 0.146166 16.6127 0.229078 16.5159C0.311991 16.4191 0.41349 16.3399 0.527565 16.283C0.64164 16.2261 0.765972 16.1926 0.893198 16.1847C1.02042 16.1767 1.14796 16.1943 1.26824 16.2365L11.4598 19.4785L21.6513 16.2365C21.7716 16.1943 21.8991 16.1767 22.0263 16.1847C22.1536 16.1926 22.2779 16.2261 22.392 16.283C22.506 16.3399 22.6075 16.4191 22.6905 16.5159C22.7734 16.6127 22.836 16.7252 22.8747 16.8467C22.9133 16.9681 22.9272 17.0961 22.9155 17.2231C22.9038 17.35 22.8668 17.4733 22.8065 17.5857C22.7463 17.698 22.6642 17.7972 22.565 17.8772C22.4658 17.9572 22.3515 18.0165 22.2289 18.0516L14.6064 20.4789L22.2289 22.905C22.3482 22.9429 22.4588 23.004 22.5545 23.0846C22.6502 23.1653 22.729 23.2641 22.7866 23.3752C22.8441 23.4864 22.8791 23.6078 22.8897 23.7325C22.9003 23.8572 22.8862 23.9827 22.8483 24.102ZM4.31367 9.99798C4.31367 7.60404 5.47729 5.1303 7.6771 2.85189C8.66415 1.82546 9.76592 0.915903 10.9607 0.141138C11.1108 0.048856 11.2836 0 11.4598 0C11.636 0 11.8087 0.048856 11.9588 0.141138C12.2304 0.301925 18.6059 4.29064 18.6059 9.99798C18.6059 11.8932 17.853 13.7109 16.5128 15.051C15.1727 16.3912 13.355 17.1441 11.4598 17.1441C9.5645 17.1441 7.74687 16.3912 6.40671 15.051C5.06656 13.7109 4.31367 11.8932 4.31367 9.99798ZM11.4598 15.2385C11.9652 15.2385 12.4499 15.0377 12.8072 14.6803C13.1646 14.3229 13.3654 13.8382 13.3654 13.3328C13.3654 11.7166 12.1744 10.4196 11.4598 9.78479C10.7452 10.4196 9.55414 11.7166 9.55414 13.3328C9.55414 13.8382 9.75491 14.3229 10.1123 14.6803C10.4697 15.0377 10.9544 15.2385 11.4598 15.2385ZM6.2193 9.99798C6.21888 11.3389 6.73449 12.6286 7.65923 13.5996C7.65923 13.5115 7.64852 13.4222 7.64852 13.3328C7.64852 9.99798 10.7976 7.86487 10.931 7.77555C11.0875 7.67108 11.2715 7.61533 11.4598 7.61533C11.648 7.61533 11.832 7.67108 11.9886 7.77555C12.122 7.86487 15.271 9.99798 15.271 13.3328C15.271 13.4222 15.271 13.5115 15.2603 13.5996C16.185 12.6286 16.7006 11.3389 16.7002 9.99798C16.7002 6.18673 12.858 3.09009 11.4598 2.09679C10.0627 3.09009 6.2193 6.18673 6.2193 9.99798Z" fill="white"/>
</svg>
