<svg width="32" height="31" viewBox="0 0 32 31" fill="none" xmlns="http://www.w3.org/2000/svg">
<path d="M22.9865 7.34848C20.82 4.10057 18.2081 2.1604 16 2.1604C13.7918 2.1604 11.1799 4.10057 9.01346 7.34848C6.7934 10.681 5.51901 14.6935 5.51901 18.3583C5.51901 21.138 6.62326 23.8039 8.58882 25.7694C10.5544 27.735 13.2203 28.8393 16 28.8393C18.7797 28.8393 21.4456 27.735 23.4112 25.7694C25.3767 23.8039 26.481 21.138 26.481 18.3583C26.481 14.6935 25.2066 10.681 22.9865 7.34848ZM16 26.9336C13.7264 26.9311 11.5467 26.0268 9.93909 24.4192C8.33145 22.8115 7.42717 20.6318 7.42464 18.3583C7.42464 15.0603 8.58232 11.4325 10.5999 8.40611C12.3305 5.80969 14.5005 4.06603 16 4.06603C17.1315 4.06603 18.6441 5.05815 20.0614 6.66007L15.2854 12.0066C15.1761 12.1287 15.1002 12.277 15.0649 12.4371C15.0297 12.5971 15.0363 12.7636 15.0842 12.9203C15.1321 13.0771 15.2197 13.2188 15.3384 13.3319C15.457 13.4449 15.6029 13.5254 15.7618 13.5656L18.6917 14.2981L17.9175 18.1713C17.8681 18.4189 17.919 18.6761 18.059 18.8862C18.199 19.0963 18.4167 19.2423 18.6643 19.292C18.7282 19.3052 18.7932 19.3116 18.8584 19.3111C19.0784 19.3107 19.2914 19.2342 19.4614 19.0946C19.6314 18.955 19.7478 18.7609 19.791 18.5453L20.7438 13.7812C20.7919 13.5412 20.7457 13.2918 20.6148 13.085C20.484 12.8781 20.2786 12.7295 20.0411 12.67L17.7591 12.0995L21.2524 8.18696C21.3024 8.25961 21.3512 8.33227 21.4001 8.40611C23.4177 11.4325 24.5753 15.0603 24.5753 18.3583C24.5728 20.6318 23.6685 22.8115 22.0609 24.4192C20.4532 26.0268 18.2735 26.9311 16 26.9336Z" fill="#B60204"/>
</svg>
