<svg width="16" height="15" viewBox="0 0 16 15" fill="none" xmlns="http://www.w3.org/2000/svg">
<path d="M0.791668 4.5118e-07C0.354668 -0.000449549 0.000792986 0.335775 1.31982e-06 0.75C-0.000790347 1.16422 0.354668 1.49955 0.791668 1.5C1.38383 1.5006 1.75275 1.75927 2.05358 2.2266C2.19608 2.44897 2.37024 2.99452 2.52383 3.75C2.75499 4.89292 3.58705 8.85937 3.58705 8.85937C3.86888 10.1937 5.21946 11.25 6.65476 11.25H11.5283C12.9643 11.25 14.3149 10.1937 14.5967 8.85937C14.5967 8.85937 15.8333 3.28657 15.8333 3C15.8333 2.58577 15.4787 2.25 15.0417 2.25C14.7955 2.25 3.96467 2.25645 3.78496 2.25C3.74301 2.11267 3.6195 1.776 3.439 1.4766C2.89037 0.567075 2.00292 0.00127545 0.791668 4.5118e-07ZM5.9375 12.75C5.282 12.75 4.75 13.2537 4.75 13.875C4.75 14.4963 5.282 15 5.9375 15C6.593 15 7.125 14.4963 7.125 13.875C7.125 13.2537 6.593 12.75 5.9375 12.75ZM12.2708 12.75C11.6153 12.75 11.0833 13.2537 11.0833 13.875C11.0833 14.4963 11.6153 15 12.2708 15C12.9263 15 13.4583 14.4963 13.4583 13.875C13.4583 13.2537 12.9263 12.75 12.2708 12.75Z" fill="white"/>
</svg>
