<svg width="17" height="16" viewBox="0 0 17 16" fill="none" xmlns="http://www.w3.org/2000/svg">
<path d="M1.3488 0.0891118C0.911797 0.0886618 0.557922 0.424887 0.55713 0.839111C0.556339 1.25334 0.911797 1.58866 1.3488 1.58911C1.94096 1.58971 2.30988 1.84839 2.61071 2.31571C2.75321 2.53809 2.92737 3.08364 3.08095 3.83911C3.31212 4.98203 4.14418 8.94848 4.14418 8.94848C4.42601 10.2828 5.77659 11.3391 7.21188 11.3391H12.0854C13.5215 11.3391 14.872 10.2828 15.1539 8.94848C15.1539 8.94848 16.3905 3.37569 16.3905 3.08911C16.3905 2.67489 16.0358 2.33911 15.5988 2.33911C15.3526 2.33911 4.5218 2.34556 4.34209 2.33911C4.30013 2.20179 4.17663 1.86511 3.99613 1.56571C3.4475 0.656186 2.56005 0.0903868 1.3488 0.0891118ZM6.49463 12.8391C5.83913 12.8391 5.30713 13.3428 5.30713 13.9641C5.30713 14.5854 5.83913 15.0891 6.49463 15.0891C7.15013 15.0891 7.68213 14.5854 7.68213 13.9641C7.68213 13.3428 7.15013 12.8391 6.49463 12.8391ZM12.828 12.8391C12.1725 12.8391 11.6405 13.3428 11.6405 13.9641C11.6405 14.5854 12.1725 15.0891 12.828 15.0891C13.4835 15.0891 14.0155 14.5854 14.0155 13.9641C14.0155 13.3428 13.4835 12.8391 12.828 12.8391Z" fill="#D30000"/>
</svg>
