<svg width="14" height="13" viewBox="0 0 14 13" fill="none" xmlns="http://www.w3.org/2000/svg">
<path d="M3.69841 0.493896C1.67334 0.493896 0.0317383 2.13523 0.0317383 4.16057C0.0317383 6.28324 1.24074 8.28591 3.24007 10.1192C3.92247 10.7446 4.65721 11.2932 5.38587 11.7859C5.64127 11.9579 5.88014 12.1139 6.09427 12.2439C6.22481 12.3233 6.31087 12.3806 6.36507 12.4106C6.56641 12.5226 6.83041 12.5226 7.03174 12.4106C7.08594 12.3806 7.17201 12.3233 7.30254 12.2439C7.51667 12.1139 7.75554 11.9579 8.01094 11.7859C8.73961 11.2932 9.47434 10.7446 10.1567 10.1192C12.1561 8.28591 13.3651 6.28324 13.3651 4.16057C13.3651 2.13523 11.7235 0.493896 9.69841 0.493896C8.54827 0.493896 7.42534 1.12057 6.71921 2.03524C6.03067 1.10457 4.91167 0.493896 3.69841 0.493896Z" fill="#FCFCFD"/>
</svg>
