<svg width="14" height="12" viewBox="0 0 14 12" fill="none" xmlns="http://www.w3.org/2000/svg">
<path d="M3.66667 0C1.6416 0 0 1.64134 0 3.66667C0 5.78935 1.209 7.79201 3.20833 9.62535C3.89073 10.2507 4.62547 10.7993 5.35413 11.292C5.60953 11.464 5.8484 11.62 6.06253 11.75C6.19307 11.8294 6.27913 11.8867 6.33333 11.9167C6.53467 12.0287 6.79867 12.0287 7 11.9167C7.0542 11.8867 7.14027 11.8294 7.2708 11.75C7.48494 11.62 7.7238 11.464 7.9792 11.292C8.70787 10.7993 9.4426 10.2507 10.125 9.62535C12.1243 7.79201 13.3333 5.78935 13.3333 3.66667C13.3333 1.64134 11.6917 0 9.66667 0C8.51654 0 7.3936 0.626676 6.68747 1.54134C5.99893 0.610676 4.87993 0 3.66667 0Z" fill="#D30000"/>
</svg>
